<?xml version="1.0" encoding="UTF-8"?>
<svg id="Layer_1" data-name="Layer 1" xmlns="http://www.w3.org/2000/svg" version="1.1" viewBox="0 0 166 40">
  <defs>
    <style>
      .cls-1 {
        fill-rule: evenodd;
      }

      .cls-1, .cls-2 {
        fill: #fff;
        stroke-width: 0px;
      }
    </style>
  </defs>
  <g>
    <path class="cls-2" d="M48.6,26.2h1.8v12.7h-1.8v-12.7Z"/>
    <path class="cls-2" d="M54.5,26.2h2.4l6.3,10.5v-10.5h1.6v12.7h-2.3l-6.5-10.8v10.8h-1.6v-12.7Z"/>
    <path class="cls-2" d="M69.1,26.2h7.6v1.5h-5.8v4h5.4v1.5h-5.4v5.8h-1.8v-12.7Z"/>
    <path class="cls-2" d="M80.7,27.5c1.3-1.4,3.1-1.7,4.2-1.7,3.5,0,5.7,2.3,5.7,6.6s-1.4,6.8-5.9,6.8-5.7-3.1-5.7-6.6.2-3.6,1.6-5.1ZM82.1,36.5c.7.9,1.8,1.2,2.8,1.2s2.1-.3,2.8-1.2c1-1.3,1.1-3.3,1.1-4.1,0-2.9-1-5.1-3.9-5.1s-4.1,2.6-4.1,5.2.2,2.9,1.1,4Z"/>
    <path class="cls-2" d="M96.5,38.9v-11.2h-4.3v-1.5h10.3v1.5h-4.3v11.2h-1.7Z"/>
    <path class="cls-2" d="M105,26.2h4.5c.7,0,2,0,2.9.6,1,.6,1.4,1.6,1.4,2.6s-.3,1.7-.9,2.3c-.5.5-1.1.7-1.5.8,1.2.3,1.8.9,1.9,2.4.2,1.5.3,2.6.8,4h-1.9c-.3-.8-.5-2.4-.6-3.4-.2-1.9-.7-2.4-2.8-2.4h-2.2v5.7h-1.7v-12.7ZM106.7,31.7h2.8c.2,0,1.2,0,1.7-.3.2-.1.9-.6.9-1.7,0-2.1-1.8-2.1-2.5-2.1h-2.8v4Z"/>
    <path class="cls-2" d="M117.4,26.2h8v1.5h-6.2v4h5.9v1.5h-5.9v4.2h6.4v1.6h-8.1v-12.7Z"/>
    <path class="cls-2" d="M129.4,26.2h1.7v11.2h5.9v1.6h-7.7v-12.7Z"/>
    <path class="cls-2" d="M140,26.2h1.7v11.2h5.9v1.6h-7.7v-12.7Z"/>
    <path class="cls-2" d="M150.6,26.2h1.8v12.7h-1.8v-12.7Z"/>
    <path class="cls-2" d="M157.6,35.2c0,.9.1,2.5,3.1,2.5s3-1.6,3-2.3c0-1.4-1.1-1.7-2.9-2.2-1.9-.5-2.8-.7-3.5-1.1-1-.7-1.3-1.7-1.3-2.5,0-2.6,2.4-3.7,4.8-3.7s2.6.1,3.6,1.3c.7.8.7,1.6.8,2.2h-1.8c0-1.6-1.4-1.9-2.7-1.9s-2.8.8-2.8,2.1.7,1.5,2.3,1.9c3,.8,3.4.8,4.1,1.3,1.2.8,1.3,2,1.3,2.5,0,2.3-1.8,4-5,4s-2.9-.2-3.9-1.4c-.7-.9-.7-2-.7-2.6h1.8Z"/>
  </g>
  <path class="cls-1" d="M11.4,6.7c.9,0,1.6-.7,1.6-1.6s-.7-1.6-1.6-1.6-1.6.7-1.6,1.6.7,1.6,1.6,1.6Z"/>
  <path class="cls-1" d="M15.9,8c-.9,0-1.6.7-1.6,1.6s.7,1.6,1.6,1.6,1.6-.7,1.6-1.6-.7-1.6-1.6-1.6Z"/>
  <path class="cls-1" d="M15.9,17.2c-.9,0-1.6.7-1.6,1.6s.7,1.6,1.6,1.6c.9,0,1.6-.7,1.6-1.6s-.7-1.6-1.6-1.6Z"/>
  <path class="cls-1" d="M6.9,17.2c-.9,0-1.6.7-1.6,1.6s.7,1.6,1.6,1.6c.9,0,1.6-.7,1.6-1.6,0-.9-.7-1.6-1.6-1.6Z"/>
  <g>
    <path class="cls-1" d="M12.4,15.4s0,0,0,0c0,0,0,0,0,0h0c.6-.6,1.5-.5,2.1,0h0s0,0,0,0c.6.6,1.6.6,2.2,0,.6-.6.6-1.7,0-2.3-.6-.6-1.6-.6-2.3,0-.6.6-1.6.6-2.3,0-.6-.6-.6-1.7,0-2.3.6-.6.6-1.7,0-2.3-.1-.1-.2-.2-.3-.3-.5-.3-1-.3-1.5,0-.2,0-.3.2-.4.3h0c-.6.6-1.6.6-2.3,0-.6-.6-.6-1.7,0-2.3.6-.6.6-1.7,0-2.3-.6-.6-1.6-.6-2.3,0-.6.6-.6,1.6,0,2.3h0s0,0,0,0c.6.6.6,1.5.1,2.1h0c0,.1,0,.1,0,.2h0s0,0,0,0h0s0,0,0,0c0,0,0,0,0,0h0c-.6.6-1.5.5-2.1,0h0s0,0,0,0c-.6-.6-1.6-.6-2.2,0-.6.6-.6,1.7,0,2.3.6.6,1.6.6,2.3,0,.6-.6,1.6-.6,2.3,0,.6.6.6,1.7,0,2.3-.6.6-.6,1.7,0,2.3.6.6,1.6.6,2.3,0,.6-.6.6-1.6,0-2.3h0s0,0,0,0c-.6-.6-.6-1.5-.1-2.1h0c0-.1,0-.1,0-.2h0s0,0,0,0c0,0,0,0,0,0h0s0,0,0,0h0c.6-.6,1.5-.5,2.1,0,.6.6.6,1.5.1,2.1h0c0,.1,0,.1,0,.2,0,0,0,0,0,0h0s0,0,0,0c0,0,0,0,0,.1,0,0,0,0,0,0,0,0,0,0,0,0,0,0,0,0,0,0,0,0,0,0,0,0,0,0,0,0,0,0,0,0,0,0,0,0,0,0,0,0,0,.1,0,0,0,0,0,0,0,0,0,0,0,.1,0,0,0,0,0,0,0,0,0,0,0,.1,0,0,0,0,0,0,0,0,0,0,0,.1h0c0,.4.1.8.4,1.1h0s0,0,0,0c.6.6.6,1.7,0,2.3-.6.6-.6,1.7,0,2.3.6.6,1.6.6,2.3,0,.6-.6.6-1.6,0-2.3h0s0,0,0,0c-.6-.6-.6-1.5-.1-2.1h0ZM5.8,8.5h0s0,0,0,0h0ZM8,10.8s0,0,0,0c0,0,0,0,0,0h0s0,0,0,0ZM12.5,15.4s0,0,0,0c0,0,0,0,0,0h0s0,0,0,0ZM12.5,15.4h0ZM12.5,15.4h0s0,0,0,0h0s0,0,0,0ZM10.3,13h0s0,0,0,0c0,0,0,0,0,0h0Z"/>
    <path class="cls-1" d="M15.9,6.7c.9,0,1.6-.7,1.6-1.6s-.7-1.6-1.6-1.6-1.6.7-1.6,1.6.7,1.6,1.6,1.6Z"/>
    <path class="cls-1" d="M2.1,17.2c-.9,0-1.6.7-1.6,1.6s.7,1.6,1.6,1.6c.9,0,1.6-.7,1.6-1.6s-.7-1.6-1.6-1.6Z"/>
  </g>
  <path class="cls-1" d="M2.1,6.7c.9,0,1.6-.7,1.6-1.6s-.7-1.6-1.6-1.6-1.6.7-1.6,1.6.7,1.6,1.6,1.6Z"/>
  <path class="cls-1" d="M2.1,12.6c-.9,0-1.6.7-1.6,1.6s.7,1.6,1.6,1.6,1.6-.7,1.6-1.6-.7-1.6-1.6-1.6Z"/>
  <g>
    <polygon class="cls-2" points="23.1 1.8 23.1 20.5 25.2 20.5 25.2 7.2 31.9 14.4 38.5 7.2 38.5 20.5 40.7 20.5 40.7 1.8 31.9 11.2 23.1 1.8"/>
    <polygon class="cls-2" points="43.9 22.8 59.3 6.2 59.3 18.4 52.2 18.4 52.2 20.5 61.5 20.5 61.5 .8 43.9 19.7 43.9 22.8"/>
    <path class="cls-2" d="M66.2,4.5c-1,1-1.4,2.1-1.4,3.5s.5,2.5,1.4,3.5c1,1,2.1,1.4,3.5,1.4h7.7c.8,0,1.4.3,2,.8.5.5.8,1.2.8,2s-.3,1.4-.8,2c-.5.5-1.2.8-2,.8h-12.6v2.1h12.6c1.4,0,2.5-.5,3.5-1.4,1-1,1.4-2.1,1.4-3.5s-.5-2.5-1.4-3.5c-1-1-2.1-1.4-3.5-1.4h-7.7c-.8,0-1.4-.3-2-.8-.5-.5-.8-1.2-.8-2s.3-1.4.8-2c.5-.5,1.2-.8,2-.8h12.6v-2.1h-12.6c-1.4,0-2.5.5-3.5,1.4Z"/>
    <polygon class="cls-2" points="85.5 5.2 93.2 5.2 93.2 20.5 95.4 20.5 95.4 5.2 103.1 5.2 103.1 3.1 85.5 3.1 85.5 5.2"/>
    <rect class="cls-2" x="106.3" y="3.1" width="17.6" height="2.1"/>
    <rect class="cls-2" x="106.3" y="18.4" width="17.6" height="2.1"/>
    <rect class="cls-2" x="106.3" y="10.8" width="17.6" height="2.1"/>
    <path class="cls-2" d="M140.6,16.5c-1.3,1.3-2.9,1.9-4.7,1.9s-3.4-.6-4.7-1.9c-1.3-1.3-1.9-2.8-1.9-4.7s.6-3.4,1.9-4.7c1.3-1.3,2.8-1.9,4.7-1.9s3.4.6,4.7,1.9c.3.3.6.7.9,1.1,0,0,0,0,.1.1l1.7-1.2c-.4-.6-.8-1.1-1.3-1.6-1.7-1.7-3.8-2.6-6.2-2.6s-4.5.9-6.2,2.6c-1.7,1.7-2.6,3.8-2.6,6.2s.9,4.5,2.6,6.2c1.7,1.7,3.8,2.6,6.2,2.6s4.5-.9,6.2-2.6c.4-.4.7-.8,1-1.2,0,0,0,0,0,0l-1.7-1.3c-.3.4-.6.8-.9,1.1Z"/>
    <polygon class="cls-2" points="163.4 3.1 163.4 10.8 150.1 10.8 150.1 3.1 147.9 3.1 147.9 20.5 150.1 20.5 150.1 12.9 163.4 12.9 163.4 20.5 165.5 20.5 165.5 3.1 163.4 3.1"/>
  </g>
</svg>